<?xml version="1.0" encoding="UTF-8"?>
<svg width="750px" height="424px" viewBox="0 0 750 424" version="1.1" xmlns="http://www.w3.org/2000/svg" xmlns:xlink="http://www.w3.org/1999/xlink">
    <!-- Generator: Sketch 63.1 (92452) - https://sketch.com -->
    <title>RPA Ecosystem v4</title>
    <desc>Created with Sketch.</desc>
    <defs>
        <linearGradient x1="0%" y1="50%" x2="100%" y2="50%" id="linearGradient-1">
            <stop stop-color="#FF1F00" offset="0%"></stop>
            <stop stop-color="#FF8B00" offset="100%"></stop>
        </linearGradient>
        <linearGradient x1="0%" y1="50%" x2="100%" y2="50%" id="linearGradient-2">
            <stop stop-color="#FF1F00" offset="0%"></stop>
            <stop stop-color="#FF8B00" offset="100%"></stop>
        </linearGradient>
        <linearGradient x1="0%" y1="50%" x2="100%" y2="50%" id="linearGradient-3">
            <stop stop-color="#FF1F00" offset="0%"></stop>
            <stop stop-color="#FF8B00" offset="100%"></stop>
        </linearGradient>
    </defs>
    <g id="RPA-Ecosystem-v4" stroke="none" stroke-width="1" fill="none" fill-rule="evenodd">
        <rect fill="#FFFFFF" x="0" y="0" width="750" height="424"></rect>
        <line x1="1.5" y1="287.5" x2="430.5" y2="287.5" id="Line-3" stroke="#939598" stroke-linecap="square" stroke-dasharray="5,10"></line>
        <g id="Group-2" transform="translate(30.000000, 95.000000)">
            <rect id="Rectangle" fill="url(#linearGradient-1)" x="0" y="0" width="340" height="60"></rect>
            <text id="Camunda-Process-&amp;-De" font-family="IBMPlexSans-Bold, IBM Plex Sans" font-size="12" font-weight="bold" fill="#FFFFFF">
                <tspan x="68.242" y="34">Camunda Process &amp; Decision Engine</tspan>
            </text>
        </g>
        <g id="Group-2-Copy-5" transform="translate(491.000000, 95.000000)">
            <rect id="Rectangle" fill="url(#linearGradient-2)" x="0" y="0" width="230" height="60"></rect>
            <text id="Camunda-Modeler" font-family="IBMPlexSans-Bold, IBM Plex Sans" font-size="12" font-weight="bold" fill="#FFFFFF">
                <tspan x="64.254" y="34">Camunda Modeler</tspan>
            </text>
        </g>
        <g id="Group-2-Copy-6" transform="translate(491.000000, 199.000000)">
            <rect id="Rectangle" fill="url(#linearGradient-2)" x="0" y="0" width="230" height="60"></rect>
            <text id="Cawemo-Catalog" font-family="IBMPlexSans-Bold, IBM Plex Sans" font-size="12" font-weight="bold" fill="#FFFFFF">
                <tspan x="68.184" y="34">Cawemo Catalog</tspan>
            </text>
        </g>
        <g id="Group-7" transform="translate(30.000000, 200.000000)">
            <g id="Group-2-Copy" transform="translate(0.000000, 0.000000)">
                <rect id="Rectangle" fill="url(#linearGradient-3)" x="0" y="0" width="244" height="60"></rect>
                <text id="Camunda-RPA-Bridge" font-family="IBMPlexSans-Bold, IBM Plex Sans" font-size="12" font-weight="bold" fill="#FFFFFF">
                    <tspan x="62.68" y="34">Camunda RPA Bridge</tspan>
                </text>
            </g>
            <g id="Group-Copy-3" transform="translate(260.000000, 0.000000)">
                <rect id="Rectangle" stroke="#FB4716" fill="#E6E7E8" x="0" y="0" width="80" height="28" rx="14"></rect>
                <text id="UiPath-Bridge-Config" font-family="IBMPlexSans, IBM Plex Sans" font-size="9" font-weight="normal" line-spacing="6" fill="#000000">
                    <tspan x="26.608" y="14">UiPath</tspan>
                    <tspan x="13" y="26">Bridge Config</tspan>
                </text>
            </g>
            <g id="Group-Copy-8" transform="translate(260.000000, 32.000000)">
                <rect id="Rectangle" stroke="#234F8D" fill="#E6E7E8" x="0" y="0" width="80" height="28" rx="14"></rect>
                <text id="Autom.-Anyw.-Bridge" font-family="IBMPlexSans, IBM Plex Sans" font-size="9" font-weight="normal" line-spacing="6" fill="#000000">
                    <tspan x="12.5" y="14">Autom. Anyw.</tspan>
                    <tspan x="13.427" y="26">Bridge Config</tspan>
                </text>
            </g>
            <path id="Line-Copy" d="M252.5,9.5 L252.5,13.5 L259.5,13.5 L259.5,14.5 L252.5,14.5 L252.5,18.5 L243.5,14 L252.5,9.5 Z" fill="#58595B" fill-rule="nonzero"></path>
            <path id="Line-Copy-3" d="M252.5,41.5 L252.5,45.5 L259.5,45.5 L259.5,46.5 L252.5,46.5 L252.5,50.5 L243.5,46 L252.5,41.5 Z" fill="#58595B" fill-rule="nonzero"></path>
        </g>
        <g id="Group-6" transform="translate(30.000000, 311.000000)">
            <g id="Group-5">
                <g id="Group-2-Copy-3" transform="translate(3.000000, 0.000000)">
                    <rect id="Rectangle" stroke="#FB4716" fill="#E6E7E8" x="0" y="0" width="60" height="100"></rect>
                    <text id="UiPath-Bot" font-family="ArialMT, Arial" font-size="12" font-weight="normal" fill="#000000">
                        <tspan x="12.3662109" y="44">UiPath </tspan>
                        <tspan x="21.3691406" y="64">Bot</tspan>
                    </text>
                </g>
                <g id="Group-2-Copy-2" transform="translate(0.000000, 3.000000)">
                    <rect id="Rectangle" stroke="#FB4716" fill="#E6E7E8" x="0" y="0" width="60" height="100"></rect>
                    <text id="UiPath" font-family="IBMPlexSans, IBM Plex Sans" font-size="12" font-weight="normal" fill="#000000">
                        <tspan x="12.138" y="55">UiPath</tspan>
                    </text>
                </g>
                <g id="Group-4" transform="translate(76.000000, 3.000000)">
                    <rect id="Rectangle-Copy" stroke="#979797" fill="#FFFFFF" x="0" y="0" width="80" height="100" rx="14"></rect>
                    <g id="Group-Copy-3" transform="translate(5.000000, 4.000000)">
                        <rect id="Rectangle" stroke="#FB4716" fill="#E6E7E8" x="0" y="0" width="70" height="40" rx="14"></rect>
                        <text id="UiPath-Package-1" font-family="IBMPlexSans, IBM Plex Sans" font-size="12" font-weight="normal" line-spacing="10" fill="#000000">
                            <tspan x="17.714" y="19">UiPath</tspan>
                            <tspan x="8" y="35">Package 1</tspan>
                        </text>
                    </g>
                    <text id="…" font-family="ArialMT, Arial" font-size="12" font-weight="normal" line-spacing="10" fill="#000000">
                        <tspan x="34.5" y="51">…</tspan>
                    </text>
                    <g id="Group-Copy-4" transform="translate(5.000000, 56.000000)">
                        <rect id="Rectangle" stroke="#FB4716" fill="#E6E7E8" x="0" y="0" width="70" height="40" rx="14"></rect>
                        <text id="UiPath-Package-N" font-family="IBMPlexSans, IBM Plex Sans" font-size="12" font-weight="normal" line-spacing="10" fill="#000000">
                            <tspan x="17.356" y="19">UiPath</tspan>
                            <tspan x="7" y="35">Package N</tspan>
                        </text>
                    </g>
                </g>
                <path id="Line-Copy" d="M69,49 L68.999,53 L76,53 L76,54 L68.999,54 L69,58 L60,53.5 L69,49 Z" fill="#4A4A4A" fill-rule="nonzero"></path>
            </g>
            <g id="Group-5-Copy" transform="translate(184.000000, 0.000000)">
                <g id="Group-2-Copy-4" transform="translate(3.000000, 0.000000)">
                    <rect id="Rectangle" stroke="#234F8D" fill="#E6E7E8" x="0" y="0" width="60" height="100"></rect>
                    <text id="UiPath-Bot" font-family="ArialMT, Arial" font-size="12" font-weight="normal" fill="#000000">
                        <tspan x="12.3662109" y="44">UiPath </tspan>
                        <tspan x="21.3691406" y="64">Bot</tspan>
                    </text>
                </g>
                <g id="Group-2-Copy-2" transform="translate(0.000000, 3.000000)">
                    <rect id="Rectangle" stroke="#234F8D" fill="#E6E7E8" x="0" y="0" width="60" height="100"></rect>
                    <text id="Auto--mation-Anywher" font-family="IBMPlexSans, IBM Plex Sans" font-size="12" font-weight="normal" fill="#000000">
                        <tspan x="14.85" y="29">Auto-</tspan>
                        <tspan x="11.184" y="44">mation </tspan>
                        <tspan x="3.024" y="59">Anywhere </tspan>
                        <tspan x="8.148" y="80">RPA Bot</tspan>
                    </text>
                </g>
                <g id="Group-4" transform="translate(76.000000, 3.000000)">
                    <rect id="Rectangle-Copy" stroke="#939598" fill="#FFFFFF" x="0" y="0" width="80" height="100" rx="14"></rect>
                    <g id="Group-Copy-3" transform="translate(5.000000, 4.000000)">
                        <rect id="Rectangle" stroke="#234F8D" fill="#E6E7E8" x="0" y="0" width="70" height="40" rx="14"></rect>
                        <text id="AA-Script-1" font-family="IBMPlexSans, IBM Plex Sans" font-size="12" font-weight="normal" line-spacing="10" fill="#000000">
                            <tspan x="27.99" y="19">AA</tspan>
                            <tspan x="15" y="35">Script 1</tspan>
                        </text>
                    </g>
                    <text id="…" font-family="ArialMT, Arial" font-size="12" font-weight="normal" line-spacing="10" fill="#000000">
                        <tspan x="34.5" y="51">…</tspan>
                    </text>
                    <g id="Group-Copy-4" transform="translate(5.000000, 56.000000)">
                        <rect id="Rectangle" stroke="#234F8D" fill="#E6E7E8" x="0" y="0" width="70" height="40" rx="14"></rect>
                        <text id="AA-Script-N" font-family="IBMPlexSans, IBM Plex Sans" font-size="12" font-weight="normal" line-spacing="10" fill="#000000">
                            <tspan x="28.132" y="19">AA</tspan>
                            <tspan x="14.5" y="35">Script N</tspan>
                        </text>
                    </g>
                </g>
                <path id="Line-Copy" d="M69,49 L69,53 L76,53 L76,54 L69,54 L69,58 L60,53.5 L69,49 Z" fill="#4A4A4A" fill-rule="nonzero"></path>
            </g>
        </g>
        <g id="Group-8" transform="translate(30.000000, 10.000000)">
            <rect id="Rectangle" stroke="#939598" fill="#FFFFFF" x="0" y="0" width="340" height="60" rx="14"></rect>
            <g id="Group" transform="translate(24.000000, 5.000000)">
                <rect id="Rectangle" fill="#E6E7E8" x="0" y="0" width="130" height="51" rx="14"></rect>
                <text id="Process-&amp;-Decision-I" font-family="IBMPlexSans, IBM Plex Sans" font-size="12" font-weight="normal" line-spacing="10" fill="#000000">
                    <tspan x="14" y="25">Process &amp; Decision</tspan>
                    <tspan x="27.578" y="41">Instance Data</tspan>
                </text>
            </g>
            <g id="Group-Copy-2" transform="translate(186.000000, 5.000000)">
                <rect id="Rectangle" fill="#E6E7E8" x="0" y="0" width="130" height="51" rx="14"></rect>
                <text id="Process-&amp;-Decision-D" font-family="IBMPlexSans, IBM Plex Sans" font-size="12" font-weight="normal" line-spacing="10" fill="#000000">
                    <tspan x="14" y="25">Process &amp; Decision</tspan>
                    <tspan x="36.29" y="41">Definitions</tspan>
                </text>
            </g>
        </g>
        <g id="Group-3" transform="translate(138.000000, 155.000000)">
            <line x1="12.5" y1="0.5" x2="12.5" y2="44.5" id="Line-2" stroke="#58595B" stroke-linecap="square"></line>
            <circle id="Oval" stroke="#58595B" fill="#FFFFFF" cx="12.5" cy="22.5" r="3.5"></circle>
            <polygon id="Triangle" fill="#58595B" points="3 19 6 26 0 26"></polygon>
        </g>
        <g id="Group-3-Copy-4" transform="translate(431.000000, 130.500000) rotate(90.000000) translate(-431.000000, -130.500000) translate(423.000000, 70.000000)">
            <line x1="3.5" y1="0.5" x2="3.5" y2="120.5" id="Line-2" stroke="#58595B" stroke-linecap="square"></line>
            <circle id="Oval" stroke="#58595B" fill="#FFFFFF" cx="3.5" cy="60.5" r="3.5"></circle>
            <polygon id="Triangle" fill="#58595B" transform="translate(13.000000, 60.500000) scale(1, -1) translate(-13.000000, -60.500000) " points="13 57 16 64 10 64"></polygon>
        </g>
        <g id="Group-3-Copy-3" transform="translate(594.000000, 155.000000)">
            <line x1="12.5" y1="0.5" x2="12.5" y2="43.5" id="Line-2" stroke="#58595B" stroke-linecap="square"></line>
            <circle id="Oval" stroke="#58595B" fill="#FFFFFF" cx="12.5" cy="22.5" r="3.5"></circle>
            <polygon id="Triangle" fill="#58595B" transform="translate(3.000000, 22.500000) scale(1, -1) translate(-3.000000, -22.500000) " points="3 19 6 26 0 26"></polygon>
        </g>
        <g id="Group-3-Copy" transform="translate(48.000000, 260.000000)">
            <line x1="12.5" y1="0.5" x2="12.5" y2="53.5" id="Line-2" stroke="#58595B" stroke-linecap="square"></line>
            <circle id="Oval" stroke="#58595B" fill="#FFFFFF" cx="12.5" cy="27.5" r="3.5"></circle>
            <polygon id="Triangle" fill="#58595B" transform="translate(3.000000, 27.500000) scale(1, -1) translate(-3.000000, -27.500000) " points="3 24 6 31 0 31"></polygon>
        </g>
        <g id="Group-3-Copy-2" transform="translate(232.000000, 261.000000)">
            <line x1="12.5" y1="3.38340467e-14" x2="12.5" y2="53" id="Line-2" stroke="#58595B" stroke-linecap="square"></line>
            <circle id="Oval" stroke="#58595B" fill="#FFFFFF" cx="12.5" cy="26.5" r="3.5"></circle>
            <polygon id="Triangle" fill="#58595B" transform="translate(3.000000, 26.500000) scale(1, -1) translate(-3.000000, -26.500000) " points="3 23 6 30 0 30"></polygon>
        </g>
        <g id="Group-4-Copy-2" transform="translate(491.000000, 284.000000)">
            <rect id="Rectangle-Copy" stroke="#939598" fill="#FFFFFF" x="0" y="0" width="230" height="100" rx="14"></rect>
            <g id="Group-Copy-3" transform="translate(6.000000, 4.000000)">
                <rect id="Rectangle" stroke="#FB4716" fill="#E6E7E8" x="0" y="0" width="90" height="40" rx="14"></rect>
                <text id="UiPath-Pkg-1-Task-Te" font-family="IBMPlexSans, IBM Plex Sans" font-size="12" font-weight="normal" line-spacing="10" fill="#000000">
                    <tspan x="11.782" y="19">UiPath Pkg 1</tspan>
                    <tspan x="7" y="35">Task Template</tspan>
                </text>
            </g>
            <g id="Group-Copy-6" transform="translate(114.000000, 4.000000)">
                <rect id="Rectangle" stroke="#234F8D" fill="#E6E7E8" x="0" y="0" width="110" height="40" rx="14"></rect>
                <text id="AA-Script-1-Task-Tem" font-family="IBMPlexSans, IBM Plex Sans" font-size="12" font-weight="normal" line-spacing="10" fill="#000000">
                    <tspan x="26.012" y="19">AA Script 1</tspan>
                    <tspan x="17" y="35">Task Template</tspan>
                </text>
            </g>
            <g id="Group-Copy-5" transform="translate(6.000000, 56.000000)">
                <rect id="Rectangle" stroke="#FB4716" fill="#E6E7E8" x="0" y="0" width="90" height="40" rx="14"></rect>
                <text id="UiPath-Pkg-N-Task-Te" font-family="IBMPlexSans, IBM Plex Sans" font-size="12" font-weight="normal" line-spacing="10" fill="#000000">
                    <tspan x="11.14" y="19">UiPath Pkg N</tspan>
                    <tspan x="7" y="35">Task Template</tspan>
                </text>
            </g>
            <g id="Group-Copy-7" transform="translate(114.000000, 56.000000)">
                <rect id="Rectangle" stroke="#234F8D" fill="#E6E7E8" x="0" y="0" width="110" height="40" rx="14"></rect>
                <text id="AA-Script-N-Task-Tem" font-family="IBMPlexSans, IBM Plex Sans" font-size="12" font-weight="normal" line-spacing="10" fill="#000000">
                    <tspan x="25.37" y="19">AA Script N</tspan>
                    <tspan x="17" y="35">Task Template</tspan>
                </text>
            </g>
            <text id="…" font-family="ArialMT, Arial" font-size="12" font-weight="normal" line-spacing="10" fill="#000000">
                <tspan x="45" y="51">…</tspan>
            </text>
            <text id="…" font-family="ArialMT, Arial" font-size="12" font-weight="normal" line-spacing="10" fill="#000000">
                <tspan x="163" y="51">…</tspan>
            </text>
        </g>
        <path id="Line" d="M200.5,70 L205,79 L201,79 L201,87 L205,87 L200.5,96 L196,87 L200,87 L200,79 L196,79 L200.5,70 Z" fill="#58595B" fill-rule="nonzero"></path>
        <text id="Deploy" font-family="ArialMT, Arial" font-size="9" font-weight="normal" line-spacing="6" fill="#000000">
            <tspan x="418" y="116">Deploy</tspan>
        </text>
        <text id="Fetch-tasks-for-exec" font-family="ArialMT, Arial" font-size="9" font-weight="normal" line-spacing="6" fill="#000000">
            <tspan x="161" y="182">Fetch tasks for execution</tspan>
        </text>
        <text id="Load-templates" font-family="IBMPlexSans, IBM Plex Sans" font-size="9" font-weight="normal" line-spacing="6" fill="#000000">
            <tspan x="617" y="183">Load templates</tspan>
        </text>
        <g id="Group-Copy-2" transform="translate(541.000000, 19.000000)">
            <rect id="Rectangle" fill="#E6E7E8" x="0" y="0" width="130" height="51" rx="14"></rect>
            <text id="Process-&amp;-Decision-D" font-family="IBMPlexSans, IBM Plex Sans" font-size="12" font-weight="normal" line-spacing="10" fill="#000000">
                <tspan x="14" y="25">Process &amp; Decision</tspan>
                <tspan x="39.776" y="41">Diagrams</tspan>
            </text>
        </g>
        <path id="Line-Copy-4" d="M606.5,70 L611,79 L607,79 L607,87 L611,87 L606.5,96 L602,87 L606,87 L606,79 L602,79 L606.5,70 Z" fill="#58595B" fill-rule="nonzero"></path>
        <path id="Line-Copy-2" d="M606.5,259 L611,268 L607,268 L607,276 L611,276 L606.5,285 L602,276 L606,276 L606,268 L602,268 L606.5,259 Z" fill="#58595B" fill-rule="nonzero"></path>
    </g>
</svg>